<svg width="98" height="25" viewBox="0 0 98 25" fill="none" xmlns="http://www.w3.org/2000/svg">
<path d="M7.608 0.816C9.384 0.816 10.88 1.216 12.096 2.016C13.312 2.8 14.216 3.84 14.808 5.136C15.4 6.432 15.696 7.84 15.696 9.36C15.696 10.976 15.352 12.472 14.664 13.848C13.992 15.224 13.016 16.328 11.736 17.16C10.472 17.976 9.008 18.384 7.344 18.384C6.096 18.384 4.88 18.128 3.696 17.616C2.528 17.104 1.416 16.12 0.36 14.664L1.512 13.608C2.168 14.52 2.952 15.224 3.864 15.72C4.776 16.2 5.736 16.44 6.744 16.44C8.312 16.44 9.536 15.88 10.416 14.76C11.296 13.64 11.792 12.128 11.904 10.224L8.256 10.2C7.728 10.2 7.304 10.24 6.984 10.32C6.664 10.4 6.4 10.592 6.192 10.896C6 11.2 5.904 11.672 5.904 12.312H4.32V6.24H6.168L6.096 7.32C6.096 7.576 6.08 7.912 6.048 8.328H11.88C11.752 6.648 11.304 5.264 10.536 4.176C9.784 3.088 8.704 2.544 7.296 2.544C6.144 2.56 5.192 2.88 4.44 3.504C3.704 4.128 3.232 5.04 3.024 6.24H1.44V0.983999H3.288L3.216 2.088H3.24C3.864 1.688 4.56 1.376 5.328 1.152C6.112 0.927999 6.872 0.816 7.608 0.816ZM28.1629 14.76C28.5789 15.272 28.9469 15.68 29.2669 15.984C29.5869 16.288 29.9549 16.44 30.3709 16.44V18H27.6109C27.1309 18 26.7069 17.84 26.3389 17.52C25.9709 17.2 25.5069 16.664 24.9469 15.912C24.3389 15.096 23.7549 14.264 23.1949 13.416L22.5469 12.504L21.9949 12.528V14.136C21.9949 14.904 21.9629 15.608 21.8989 16.248C22.4109 16.2 22.9309 16.176 23.4589 16.176V18H17.1469V16.44C17.7549 16.44 18.1469 16.272 18.3229 15.936C18.4989 15.6 18.5869 15.056 18.5869 14.304V9.864C18.5869 9.096 18.6189 8.392 18.6829 7.752C18.1549 7.8 17.6349 7.824 17.1229 7.824V6H23.4109V7.56C22.9789 7.56 22.6589 7.648 22.4509 7.824C22.2589 7.984 22.1309 8.208 22.0669 8.496C22.0189 8.784 21.9949 9.184 21.9949 9.696V10.824H23.1469L24.8749 8.832C25.3709 8.272 25.6829 7.936 25.8109 7.824V7.8L24.5389 7.824V6H29.9389V7.536C29.1709 7.616 28.5149 7.832 27.9709 8.184C27.4429 8.52 26.9629 8.936 26.5309 9.432L24.9949 11.136V11.16C25.2509 11.288 25.4909 11.464 25.7149 11.688C25.9549 11.896 26.2349 12.216 26.5549 12.648L28.1629 14.76ZM36.8355 18.384C35.7475 18.384 34.7555 18.144 33.8595 17.664C32.9635 17.168 32.2515 16.464 31.7235 15.552C31.1955 14.624 30.9315 13.528 30.9315 12.264C30.9315 11.064 31.1955 9.96 31.7235 8.952C32.2515 7.928 32.9875 7.12 33.9315 6.528C34.8915 5.92 35.9715 5.616 37.1715 5.616C38.1475 5.616 38.9795 5.768 39.6675 6.072C40.3715 6.376 40.8995 6.784 41.2515 7.296C41.6035 7.792 41.7795 8.328 41.7795 8.904C41.7795 9.4 41.6275 9.824 41.3235 10.176C41.0355 10.528 40.6355 10.704 40.1235 10.704C39.5955 10.704 39.1955 10.544 38.9235 10.224C38.6675 9.904 38.5395 9.544 38.5395 9.144C38.5395 8.776 38.6355 8.424 38.8275 8.088C38.6835 7.8 38.4515 7.6 38.1315 7.488C37.8115 7.36 37.4915 7.296 37.1715 7.296C36.3555 7.296 35.6915 7.672 35.1795 8.424C34.6835 9.16 34.4355 10.208 34.4355 11.568C34.4355 12.928 34.6995 14.048 35.2275 14.928C35.7555 15.808 36.5875 16.248 37.7235 16.248C38.3635 16.248 38.9955 16.08 39.6195 15.744C40.2435 15.408 40.7715 14.96 41.2035 14.4L42.3075 15.48C41.5075 16.584 40.6515 17.344 39.7395 17.76C38.8275 18.176 37.8595 18.384 36.8355 18.384ZM43.6414 16.44C44.2494 16.44 44.6414 16.272 44.8174 15.936C44.9934 15.6 45.0814 15.056 45.0814 14.304V9.864C45.0814 9.176 45.1054 8.472 45.1534 7.752L43.6174 7.824V6H57.4414V7.56C56.8334 7.56 56.4414 7.728 56.2654 8.064C56.1054 8.4 56.0254 8.944 56.0254 9.696V14.136C56.0254 14.904 55.9934 15.608 55.9294 16.248L57.4894 16.176V18H51.1774V16.44C51.7854 16.44 52.1774 16.272 52.3534 15.936C52.5294 15.6 52.6174 15.056 52.6174 14.304V9.84C52.6174 9.12 52.6494 8.464 52.7134 7.872H49.9294C49.3214 7.872 48.9294 8.016 48.7534 8.304C48.5774 8.576 48.4894 9.032 48.4894 9.672V14.136C48.4894 14.904 48.4574 15.608 48.3934 16.248L49.9534 16.176V18H43.6414V16.44ZM65.1486 18.384C63.9806 18.384 62.9486 18.128 62.0526 17.616C61.1566 17.088 60.4606 16.344 59.9646 15.384C59.4686 14.424 59.2206 13.304 59.2206 12.024C59.2206 10.904 59.4686 9.856 59.9646 8.88C60.4766 7.888 61.1886 7.096 62.1006 6.504C63.0126 5.912 64.0526 5.616 65.2206 5.616C66.7726 5.616 68.0606 6.072 69.0846 6.984C70.1246 7.896 70.6366 9.416 70.6206 11.544L62.7486 11.688C62.7486 13.096 63.0126 14.208 63.5406 15.024C64.0846 15.84 64.9486 16.248 66.1326 16.248C66.6926 16.248 67.2926 16.104 67.9326 15.816C68.5726 15.528 69.1486 15.072 69.6606 14.448L70.7406 15.456C69.3806 17.408 67.5166 18.384 65.1486 18.384ZM67.3086 10.008C67.2606 8.2 66.6046 7.296 65.3406 7.296C64.6526 7.296 64.1006 7.544 63.6846 8.04C63.2846 8.52 63.0206 9.176 62.8926 10.008H67.3086ZM72.1346 22.56C72.7426 22.56 73.1346 22.392 73.3106 22.056C73.4866 21.72 73.5746 21.176 73.5746 20.424V10.272C73.5746 9.552 73.6066 8.872 73.6706 8.232L71.9666 8.304V6.48C72.9746 6.48 73.7906 6.408 74.4146 6.264C75.0386 6.12 75.4546 5.952 75.6626 5.76H76.8386C76.8706 6.032 76.9106 6.416 76.9586 6.912H76.9826C77.9746 6.048 79.0466 5.616 80.1986 5.616C81.1586 5.616 81.9986 5.864 82.7186 6.36C83.4546 6.856 84.0226 7.568 84.4226 8.496C84.8386 9.408 85.0466 10.472 85.0466 11.688C85.0466 12.968 84.7986 14.12 84.3026 15.144C83.8066 16.152 83.1026 16.944 82.1906 17.52C81.2946 18.096 80.2626 18.384 79.0946 18.384C78.4706 18.384 77.7586 18.24 76.9586 17.952V20.256C76.9586 20.944 76.9346 21.648 76.8866 22.368C77.3826 22.32 77.8946 22.296 78.4226 22.296V24.12H72.1346V22.56ZM78.6146 16.584C80.5506 16.584 81.5186 15.072 81.5186 12.048C81.5186 10.864 81.3026 9.856 80.8706 9.024C80.4546 8.192 79.8226 7.776 78.9746 7.776C78.5746 7.776 78.1906 7.872 77.8226 8.064C77.4706 8.256 77.1826 8.512 76.9586 8.832V16.152C77.1186 16.264 77.3506 16.368 77.6546 16.464C77.9746 16.544 78.2946 16.584 78.6146 16.584ZM88.9487 16.44C89.5567 16.44 89.9487 16.272 90.1247 15.936C90.3007 15.6 90.3887 15.056 90.3887 14.304V9.864C90.3887 9.256 90.4127 8.592 90.4607 7.872H89.8607C89.1087 7.872 88.5647 8.056 88.2287 8.424C87.8927 8.792 87.7247 9.44 87.7247 10.368H86.1647L86.2607 6H97.9007L97.9967 10.368H96.4367C96.4367 9.44 96.2687 8.792 95.9327 8.424C95.5967 8.056 95.0527 7.872 94.3007 7.872H93.7727V14.136C93.7727 14.904 93.7407 15.608 93.6767 16.248L95.2367 16.176V18H88.9487V16.44Z" fill="black"/>
</svg>
